<svg width="22" height="22" viewBox="0 0 22 22" fill="none" xmlns="http://www.w3.org/2000/svg">
<path fill-rule="evenodd" clip-rule="evenodd" d="M10.922 0.00067119C11.4057 -0.00645064 11.9128 0.0434022 12.3652 0.135986C12.7475 0.207204 13.2624 0.335397 13.4965 0.406615C13.7305 0.477834 14.2064 0.670123 14.5496 0.833925C14.8929 0.997727 15.4546 1.33958 15.7979 1.58884C16.1411 1.8381 16.578 2.21556 16.7731 2.42921C16.9681 2.63575 17.3113 3.0773 17.5376 3.41203C17.7638 3.74675 18.0525 4.28089 18.1773 4.60849C18.3099 4.92898 18.466 5.4916 18.5362 5.85481C18.6298 6.32486 18.6532 6.73792 18.622 7.32903C18.5986 7.77771 18.5128 8.39019 18.427 8.68218C18.3411 8.97418 18.1695 9.44422 18.0525 9.71485C17.9277 9.98548 17.6234 10.484 17.3816 10.8187C17.1397 11.1535 16.7574 11.6021 16.5312 11.8229C16.2972 12.0366 15.9305 12.3428 15.3298 12.7915L15.7589 12.9838C15.9929 13.0906 16.4532 13.3327 16.7731 13.5108C17.0929 13.6959 17.6546 14.0734 18.0213 14.344C18.3879 14.6218 18.8794 15.0562 19.1213 15.3126C19.3631 15.5619 19.6986 15.9464 19.8702 16.1601C20.0418 16.3738 20.3305 16.7726 20.5021 17.0503C20.6738 17.3281 20.9468 17.8409 21.1106 18.1898C21.2667 18.5388 21.4773 19.137 21.5865 19.5074C21.6879 19.8777 21.8206 20.5828 21.883 21.0742C21.9454 21.5656 22 21.9715 22 21.9858C22 21.9929 21.4929 22 19.7376 22V21.6653C19.7376 21.473 19.683 21.0172 19.6128 20.6469C19.5426 20.2765 19.3787 19.6996 19.2539 19.3649C19.1291 19.0302 18.8794 18.5174 18.7078 18.2254C18.5362 17.9334 18.2319 17.4848 18.0213 17.2284C17.8184 16.972 17.3738 16.5233 17.0383 16.2313C16.695 15.9322 16.1957 15.5476 15.9149 15.3767C15.634 15.2058 15.0879 14.928 14.7057 14.7571C14.3234 14.5933 13.6525 14.3654 13.2234 14.2586C12.5057 14.0805 12.3262 14.0663 11 14.0663C9.65036 14.0592 9.50213 14.0734 8.7766 14.2586C8.34752 14.3654 7.6766 14.5933 7.29433 14.7642C6.91206 14.928 6.36596 15.2058 6.08511 15.3767C5.80426 15.5476 5.30496 15.9322 4.9617 16.2313C4.62624 16.5233 4.18156 16.972 3.97872 17.2284C3.76809 17.4848 3.46383 17.9334 3.2922 18.2254C3.12057 18.5174 2.87092 19.0302 2.7461 19.3649C2.62128 19.6996 2.45745 20.2765 2.38723 20.6469C2.31702 21.0172 2.26241 21.473 2.26241 22H0L0.0390071 21.7009C0.0624114 21.53 0.117021 21.1027 0.156028 20.7537C0.202837 20.4047 0.312057 19.8563 0.397872 19.543C0.483688 19.2296 0.678723 18.6812 0.834752 18.3323C0.982979 17.9833 1.25603 17.4492 1.42766 17.1572C1.60709 16.8652 1.95816 16.3666 2.2156 16.0533C2.46525 15.7399 2.99574 15.1915 3.38582 14.8426C3.77589 14.4865 4.44681 13.9879 4.87589 13.7244C5.30496 13.468 5.88227 13.1476 6.67021 12.7915L6.12411 12.3784C5.82766 12.1505 5.43759 11.8158 5.25816 11.6235C5.07872 11.4383 4.75887 11.0253 4.53262 10.7119C4.30638 10.3985 4.02553 9.89289 3.90071 9.59377C3.76809 9.28754 3.60426 8.82462 3.53404 8.56111C3.44043 8.21214 3.40142 7.77771 3.40142 7.00855C3.40142 6.23939 3.44043 5.80496 3.53404 5.46311C3.60426 5.19248 3.76809 4.72957 3.90071 4.43045C4.02553 4.12421 4.30638 3.61856 4.53262 3.3052C4.75887 2.99184 5.07872 2.57877 5.25816 2.38648C5.43759 2.19419 5.85887 1.8381 6.20213 1.58172C6.54539 1.33245 7.1227 0.990605 7.48936 0.819682C7.85603 0.648758 8.34752 0.449346 8.58156 0.38525C8.8156 0.314032 9.27589 0.200082 9.59575 0.135986C9.9156 0.0647677 10.5163 0.00779302 10.922 0.00067119V0.00067119ZM9.20567 2.30102C8.88582 2.40073 8.42553 2.59302 8.19149 2.72121C7.95745 2.84228 7.48156 3.20549 7.1305 3.51885C6.6078 3.99602 6.43617 4.20255 6.13972 4.76517C5.91348 5.19248 5.73404 5.66253 5.64823 6.0471C5.55461 6.47441 5.53121 6.83763 5.56241 7.29342C5.58582 7.68512 5.67943 8.15517 5.80426 8.50413C5.91348 8.8175 6.13192 9.26617 6.28014 9.50119C6.43617 9.73621 6.69362 10.0709 6.84965 10.2419C7.00567 10.4199 7.33333 10.6977 7.56738 10.8686C7.80142 11.0395 8.2227 11.2888 8.50355 11.4241C8.7844 11.5594 9.29149 11.7303 9.63475 11.8158C10.0508 11.9107 10.5059 11.9582 11 11.9582C11.4681 11.9582 11.9596 11.9084 12.3262 11.8229C12.6461 11.7517 13.1064 11.6021 13.3404 11.4953C13.5745 11.3885 13.9801 11.1677 14.2376 10.9968C14.495 10.833 14.8695 10.5267 15.0723 10.3131C15.2674 10.0994 15.5638 9.73621 15.7199 9.50119C15.8681 9.26617 16.0943 8.8175 16.2035 8.50413C16.383 8.00561 16.4142 7.82044 16.4142 7.00855C16.4142 6.19666 16.383 6.01149 16.2035 5.51297C16.0865 5.19961 15.8681 4.73669 15.7043 4.48742C15.5404 4.23816 15.2362 3.85358 15.0177 3.63993C14.8071 3.42627 14.417 3.11291 14.1596 2.94199C13.9021 2.77818 13.4965 2.55741 13.2624 2.46482C13.0284 2.36512 12.6227 2.23693 12.3652 2.17995C12.1078 2.11585 11.6319 2.05176 11.3121 2.03751C10.9922 2.01615 10.5163 2.02327 10.2589 2.05888C10.0014 2.08737 9.52553 2.20132 9.20567 2.30102V2.30102Z" fill="black"/>
</svg>
