<svg width="40" height="40" viewBox="0 0 40 40" fill="none" xmlns="http://www.w3.org/2000/svg">
<path d="M36.3424 19.4025H34.9999V19.3333H19.9999V26H29.4191C28.0449 29.8808 24.3524 32.6667 19.9999 32.6667C14.4774 32.6667 9.99992 28.1892 9.99992 22.6667C9.99992 17.1442 14.4774 12.6667 19.9999 12.6667C22.5491 12.6667 24.8683 13.6283 26.6341 15.1992L31.3483 10.485C28.3716 7.71083 24.3899 6 19.9999 6C10.7958 6 3.33325 13.4625 3.33325 22.6667C3.33325 31.8708 10.7958 39.3333 19.9999 39.3333C29.2041 39.3333 36.6666 31.8708 36.6666 22.6667C36.6666 21.5492 36.5516 20.4583 36.3424 19.4025Z" fill="#FFC107"/>
<path d="M5.25488 14.9092L10.7307 18.925C12.2124 15.2567 15.8007 12.6667 19.9999 12.6667C22.549 12.6667 24.8682 13.6283 26.6341 15.1992L31.3482 10.485C28.3715 7.71083 24.3899 6 19.9999 6C13.5982 6 8.04655 9.61417 5.25488 14.9092Z" fill="#FF3D00"/>
<path d="M19.9999 39.3333C24.3049 39.3333 28.2165 37.6858 31.174 35.0067L26.0157 30.6417C24.2861 31.957 22.1727 32.6684 19.9999 32.6667C15.6649 32.6667 11.984 29.9025 10.5974 26.045L5.16235 30.2325C7.92069 35.63 13.5224 39.3333 19.9999 39.3333Z" fill="#4CAF50"/>
<path d="M36.3425 19.4025H35V19.3333H20V26H29.4192C28.7618 27.847 27.5778 29.461 26.0133 30.6425L26.0158 30.6408L31.1742 35.0058C30.8092 35.3375 36.6667 31 36.6667 22.6667C36.6667 21.5492 36.5517 20.4583 36.3425 19.4025Z" fill="#1976D2"/>
</svg>
