<svg width="25" height="25" viewBox="0 0 25 25" fill="none" xmlns="http://www.w3.org/2000/svg">
<path d="M12.9167 5.83337C16.749 5.83337 21.4188 8.71076 23.0521 12.8584C23.2042 13.2489 23.3333 13.7036 23.3333 14.1667C23.3333 14.6286 23.2052 15.0846 23.0521 15.475C21.4177 19.6227 16.7479 22.5 12.9167 22.5C9.08438 22.5 4.41458 19.6227 2.78125 15.475C2.62917 15.0834 2.5 14.6298 2.5 14.1667C2.5 13.7048 2.62812 13.2489 2.78125 12.8584C4.41563 8.71076 9.08542 5.83337 12.9167 5.83337ZM12.9167 9.4048C11.8116 9.4048 10.7518 9.9065 9.97039 10.7995C9.18899 11.6926 8.75 12.9038 8.75 14.1667C8.75 15.4296 9.18899 16.6409 9.97039 17.5339C10.7518 18.4269 11.8116 18.9286 12.9167 18.9286C14.0217 18.9286 15.0815 18.4269 15.8629 17.5339C16.6443 16.6409 17.0833 15.4296 17.0833 14.1667C17.0833 12.9038 16.6443 11.6926 15.8629 10.7995C15.0815 9.9065 14.0217 9.4048 12.9167 9.4048ZM12.9167 11.7858C13.4692 11.7858 13.9991 12.0366 14.3898 12.4831C14.7805 12.9296 15 13.5352 15 14.1667C15 14.7982 14.7805 15.4038 14.3898 15.8503C13.9991 16.2968 13.4692 16.5477 12.9167 16.5477C12.3641 16.5477 11.8342 16.2968 11.4435 15.8503C11.0528 15.4038 10.8333 14.7982 10.8333 14.1667C10.8333 13.5352 11.0528 12.9296 11.4435 12.4831C11.8342 12.0366 12.3641 11.7858 12.9167 11.7858Z" fill="#2891F2"/>
</svg>
