<svg width="40" height="40" viewBox="0 0 40 40" fill="none" xmlns="http://www.w3.org/2000/svg">
<g clip-path="url(#clip0_50_21)">
<path d="M27.3498 6.5H22.3498C17.3498 6.5 12.2623 10.25 12.2623 18.525C12.1578 20.443 12.5859 22.3526 13.4992 24.0425C14.4125 25.7324 15.7755 27.1366 17.4373 28.1L11.2498 39.1625C11.108 39.403 11.0332 39.6771 11.0332 39.9562C11.0332 40.2354 11.108 40.5095 11.2498 40.75C11.3781 40.9702 11.56 41.1544 11.7785 41.2855C11.997 41.4166 12.2452 41.4904 12.4998 41.5H15.6123C15.9281 41.5154 16.2411 41.4338 16.5092 41.2662C16.7773 41.0987 16.9878 40.8531 17.1123 40.5625L22.8498 29.3125H23.2748V40.0875C23.2763 40.2801 23.3167 40.4703 23.3937 40.6468C23.4707 40.8233 23.5827 40.9824 23.7229 41.1144C23.8631 41.2464 24.0286 41.3487 24.2094 41.4149C24.3902 41.4812 24.5825 41.5101 24.7748 41.5H27.4998C27.8671 41.5136 28.2249 41.3823 28.4962 41.1345C28.7675 40.8866 28.9304 40.542 28.9498 40.175V8.025C28.9548 7.82964 28.9213 7.63522 28.8511 7.45283C28.7809 7.27045 28.6755 7.10368 28.5408 6.96206C28.4062 6.82044 28.2449 6.70674 28.0663 6.62746C27.8877 6.54817 27.6952 6.50486 27.4998 6.5H27.3498ZM23.3748 24.35H22.6373C19.7623 24.35 18.0623 22.0125 18.0623 18.1C18.0623 13.225 20.2248 11.4875 22.2373 11.4875H23.4123L23.3748 24.35Z" fill="#D61E3B"/>
</g>
<defs>
<clipPath id="clip0_50_21">
<rect width="40" height="40" fill="white"/>
</clipPath>
</defs>
</svg>
